<?xml version="1.0" encoding="UTF-8" standalone="no"?>
<!-- Generator: Adobe Illustrator 14.0.0, SVG Export Plug-In . SVG Version: 6.00 Build 43363)  -->
<svg
   xmlns:dc="http://purl.org/dc/elements/1.1/"
   xmlns:cc="http://creativecommons.org/ns#"
   xmlns:rdf="http://www.w3.org/1999/02/22-rdf-syntax-ns#"
   xmlns:svg="http://www.w3.org/2000/svg"
   xmlns="http://www.w3.org/2000/svg"
   xmlns:xlink="http://www.w3.org/1999/xlink"
   xmlns:sodipodi="http://sodipodi.sourceforge.net/DTD/sodipodi-0.dtd"
   xmlns:inkscape="http://www.inkscape.org/namespaces/inkscape"
   version="1.0"
   id="Layer_1"
   x="0px"
   y="0px"
   width="110px"
   height="70px"
   viewBox="0 0 110 70"
   enable-background="new 0 0 110 70"
   xml:space="preserve"
   sodipodi:version="0.32"
   inkscape:version="0.46"
   sodipodi:docname="dalston-power-battery-missing.svg"
   inkscape:output_extension="org.inkscape.output.svg.inkscape"><metadata
   id="metadata70"><rdf:RDF><cc:Work
       rdf:about=""><dc:format>image/svg+xml</dc:format><dc:type
         rdf:resource="http://purl.org/dc/dcmitype/StillImage" /></cc:Work></rdf:RDF></metadata><defs
   id="defs68"><linearGradient
     y2="51.487801"
     x2="40.912102"
     y1="21.792999"
     x1="40.912102"
     gradientUnits="userSpaceOnUse"
     id="linearGradient2491">
		<stop
   id="stop2493"
   style="stop-color:#d40000;stop-opacity:1"
   offset="0.1166" />
		<stop
   id="stop2495"
   style="stop-color:#aa0000;stop-opacity:1"
   offset="0.865" />
	</linearGradient><linearGradient
     y2="51.487801"
     x2="40.912102"
     y1="21.792999"
     x1="40.912102"
     gradientUnits="userSpaceOnUse"
     id="linearGradient2485">
		<stop
   id="stop2487"
   style="stop-color:#d40000;stop-opacity:1"
   offset="0.1166" />
		<stop
   id="stop2489"
   style="stop-color:#aa0000;stop-opacity:1"
   offset="0.865" />
	</linearGradient><inkscape:perspective
     sodipodi:type="inkscape:persp3d"
     inkscape:vp_x="0 : 35 : 1"
     inkscape:vp_y="0 : 1000 : 0"
     inkscape:vp_z="110 : 35 : 1"
     inkscape:persp3d-origin="55 : 23.333333 : 1"
     id="perspective72" /><linearGradient
     inkscape:collect="always"
     xlink:href="#SVGID_1_"
     id="linearGradient2455"
     gradientUnits="userSpaceOnUse"
     x1="40.912102"
     y1="21.792999"
     x2="40.912102"
     y2="51.487801" /><linearGradient
     inkscape:collect="always"
     xlink:href="#linearGradient2485"
     id="linearGradient2479"
     gradientUnits="userSpaceOnUse"
     x1="40.912102"
     y1="21.792999"
     x2="40.912102"
     y2="51.487801" /><linearGradient
     inkscape:collect="always"
     xlink:href="#linearGradient2491"
     id="linearGradient2481"
     gradientUnits="userSpaceOnUse"
     x1="40.912102"
     y1="21.792999"
     x2="40.912102"
     y2="51.487801" /><linearGradient
     inkscape:collect="always"
     xlink:href="#SVGID_1_"
     id="linearGradient2483"
     gradientUnits="userSpaceOnUse"
     x1="40.912102"
     y1="21.792999"
     x2="40.912102"
     y2="51.487801" /></defs><sodipodi:namedview
   inkscape:window-height="701"
   inkscape:window-width="965"
   inkscape:pageshadow="2"
   inkscape:pageopacity="0.0"
   guidetolerance="10.0"
   gridtolerance="10.0"
   objecttolerance="10.0"
   borderopacity="1.0"
   bordercolor="#666666"
   pagecolor="#ffffff"
   id="base"
   showgrid="false"
   inkscape:zoom="4.9363636"
   inkscape:cx="55"
   inkscape:cy="35"
   inkscape:window-x="2113"
   inkscape:window-y="56"
   inkscape:current-layer="Layer_1" />
<g
   id="g3">
	<path
   fill="#595959"
   d="M20.874,62.654V9.697c0-2.168,1.784-3.93,3.984-3.93l0,0c2.199,0,3.982,1.762,3.982,3.93l0,0v52.957   c0,2.17-1.783,3.93-3.982,3.93l0,0C22.658,66.584,20.874,64.824,20.874,62.654L20.874,62.654z"
   id="path5" />
</g>
<g
   id="g7">
	<path
   fill="#595959"
   d="M100.582,62.653V9.698c0-2.172,1.783-3.931,3.985-3.931l0,0c2.197,0,3.984,1.759,3.984,3.931l0,0v52.956   c0,2.174-1.787,3.931-3.984,3.931l0,0C102.365,66.584,100.582,64.827,100.582,62.653L100.582,62.653z"
   id="path9" />
</g>
<g
   id="g11">
	<path
   fill="#595959"
   d="M24.866,67.357c-2.202,0-3.986-1.782-3.986-3.986l0,0c0-2.197,1.784-3.98,3.986-3.98l0,0h79.693   c2.198,0,3.981,1.783,3.981,3.98l0,0c0,2.204-1.783,3.986-3.981,3.986l0,0H24.866L24.866,67.357z"
   id="path13" />
</g>
<g
   id="g15">
	<path
   fill="#595959"
   d="M24.866,13.736c-2.202,0-3.986-1.784-3.986-3.987l0,0c0-2.198,1.784-3.982,3.986-3.982l0,0h79.693   c2.198,0,3.981,1.784,3.981,3.982l0,0c0,2.203-1.783,3.987-3.981,3.987l0,0H24.866L24.866,13.736z"
   id="path17" />
</g>
<g
   id="g19"
   transform="matrix(0.7071068,0.7071068,-0.7071068,0.7071068,62.808367,-19.818171)">
	<linearGradient
   id="SVGID_1_"
   gradientUnits="userSpaceOnUse"
   x1="40.912102"
   y1="21.792999"
   x2="40.912102"
   y2="51.487801">
		<stop
   offset="0.1166"
   style="stop-color:#94C53E"
   id="stop22" />
		<stop
   offset="0.865"
   style="stop-color:#68B745"
   id="stop24" />
	</linearGradient>
	<path
   d="M 36.928,47.499 L 36.928,25.777 C 36.928,23.577 38.71,21.793 40.912,21.793 L 40.912,21.793 C 43.11,21.793 44.896,23.577 44.896,25.777 L 44.896,25.777 L 44.896,47.499 C 44.896,49.697 43.11,51.487 40.912,51.487 L 40.912,51.487 C 38.71,51.487 36.928,49.697 36.928,47.499 L 36.928,47.499 z"
   id="path26"
   style="fill:url(#linearGradient2483)" />
</g>
<g
   id="g28">
	<path
   fill="#595959"
   d="M4.646,47.499V25.777c0-2.2,1.782-3.984,3.984-3.984l0,0c2.198,0,3.984,1.784,3.984,3.984l0,0v21.722   c0,2.198-1.786,3.988-3.984,3.988l0,0C6.429,51.487,4.646,49.697,4.646,47.499L4.646,47.499z"
   id="path30" />
</g>



<g
   id="g59">
	<path
   fill="#595959"
   d="M8.634,29.768c-2.202,0-3.987-1.784-3.987-3.982l0,0c0-2.204,1.785-3.989,3.987-3.989l0,0h12.891   c2.202,0,3.986,1.785,3.986,3.989l0,0c0,2.198-1.784,3.982-3.986,3.982l0,0H8.634L8.634,29.768z"
   id="path61" />
</g>
<g
   id="g63">
	<path
   fill="#595959"
   d="M8.634,51.48c-2.202,0-3.987-1.783-3.987-3.986l0,0c0-2.199,1.785-3.984,3.987-3.984l0,0h12.891   c2.202,0,3.986,1.785,3.986,3.984l0,0c0,2.203-1.784,3.986-3.986,3.986l0,0H8.634L8.634,51.48z"
   id="path65" />
</g>
<g
   id="g2445"
   transform="matrix(0.7071068,0.7071068,-0.7071068,0.7071068,62.816737,-19.882084)">
	<linearGradient
   id="linearGradient2447"
   gradientUnits="userSpaceOnUse"
   x1="40.912102"
   y1="21.792999"
   x2="40.912102"
   y2="51.487801">
		<stop
   offset="0.1166"
   style="stop-color:#94C53E"
   id="stop2449" />
		<stop
   offset="0.865"
   style="stop-color:#68B745"
   id="stop2451" />
	</linearGradient>
	<path
   d="M 36.928,47.499 L 36.928,25.777 C 36.928,23.577 38.71,21.793 40.912,21.793 L 40.912,21.793 C 43.11,21.793 44.896,23.577 44.896,25.777 L 44.896,25.777 L 44.896,47.499 C 44.896,49.697 43.11,51.487 40.912,51.487 L 40.912,51.487 C 38.71,51.487 36.928,49.697 36.928,47.499 L 36.928,47.499 z"
   id="path2453"
   style="fill:url(#linearGradient2455)" />
</g><g
   transform="matrix(0.7071068,0.7071068,-0.7071068,0.7071068,62.816737,-19.882084)"
   id="g2457">
	<linearGradient
   y2="51.487801"
   x2="40.912102"
   y1="21.792999"
   x1="40.912102"
   gradientUnits="userSpaceOnUse"
   id="linearGradient2459">
		<stop
   id="stop2461"
   style="stop-color:#94C53E"
   offset="0.1166" />
		<stop
   id="stop2463"
   style="stop-color:#68B745"
   offset="0.865" />
	</linearGradient>
	<path
   style="fill:url(#linearGradient2481)"
   id="path2465"
   d="M 36.928,47.499 L 36.928,25.777 C 36.928,23.577 38.71,21.793 40.912,21.793 L 40.912,21.793 C 43.11,21.793 44.896,23.577 44.896,25.777 L 44.896,25.777 L 44.896,47.499 C 44.896,49.697 43.11,51.487 40.912,51.487 L 40.912,51.487 C 38.71,51.487 36.928,49.697 36.928,47.499 L 36.928,47.499 z" />
</g><g
   transform="matrix(-0.7071068,0.7071068,0.7071068,0.7071068,68.859139,-19.882084)"
   id="g2469">
	<linearGradient
   y2="51.487801"
   x2="40.912102"
   y1="21.792999"
   x1="40.912102"
   gradientUnits="userSpaceOnUse"
   id="linearGradient2471">
		<stop
   id="stop2473"
   style="stop-color:#94C53E"
   offset="0.1166" />
		<stop
   id="stop2475"
   style="stop-color:#68B745"
   offset="0.865" />
	</linearGradient>
	<path
   style="fill:url(#linearGradient2479)"
   id="path2477"
   d="M 36.928,47.499 L 36.928,25.777 C 36.928,23.577 38.71,21.793 40.912,21.793 L 40.912,21.793 C 43.11,21.793 44.896,23.577 44.896,25.777 L 44.896,25.777 L 44.896,47.499 C 44.896,49.697 43.11,51.487 40.912,51.487 L 40.912,51.487 C 38.71,51.487 36.928,49.697 36.928,47.499 L 36.928,47.499 z" />
</g></svg>