<?xml version="1.0" encoding="utf-8"?>
<!-- Generator: Adobe Illustrator 14.0.0, SVG Export Plug-In . SVG Version: 6.00 Build 43363)  -->
<!DOCTYPE svg PUBLIC "-//W3C//DTD SVG 1.0//EN" "http://www.w3.org/TR/2001/REC-SVG-20010904/DTD/svg10.dtd">
<svg version="1.0" id="Layer_1" xmlns="http://www.w3.org/2000/svg" xmlns:xlink="http://www.w3.org/1999/xlink" x="0px" y="0px"
	 width="110px" height="70px" viewBox="0 0 110 70" enable-background="new 0 0 110 70" xml:space="preserve">
<g>
	<path fill="#595959" d="M20.874,62.654V9.697c0-2.168,1.784-3.93,3.984-3.93l0,0c2.199,0,3.982,1.762,3.982,3.93l0,0v52.957
		c0,2.17-1.783,3.93-3.982,3.93l0,0C22.658,66.584,20.874,64.824,20.874,62.654L20.874,62.654z"/>
</g>
<g>
	<path fill="#595959" d="M100.582,62.653V9.698c0-2.172,1.783-3.931,3.985-3.931l0,0c2.197,0,3.984,1.759,3.984,3.931l0,0v52.956
		c0,2.174-1.787,3.931-3.984,3.931l0,0C102.365,66.584,100.582,64.827,100.582,62.653L100.582,62.653z"/>
</g>
<g>
	<path fill="#595959" d="M24.866,67.357c-2.202,0-3.986-1.782-3.986-3.986l0,0c0-2.197,1.784-3.98,3.986-3.98l0,0h79.693
		c2.198,0,3.981,1.783,3.981,3.98l0,0c0,2.204-1.783,3.986-3.981,3.986l0,0H24.866L24.866,67.357z"/>
</g>
<g>
	<path fill="#595959" d="M24.866,13.736c-2.202,0-3.986-1.784-3.986-3.987l0,0c0-2.198,1.784-3.982,3.986-3.982l0,0h79.693
		c2.198,0,3.981,1.784,3.981,3.982l0,0c0,2.203-1.783,3.987-3.981,3.987l0,0H24.866L24.866,13.736z"/>
</g>
<g>
	<linearGradient id="SVGID_1_" gradientUnits="userSpaceOnUse" x1="40.9121" y1="21.793" x2="40.9121" y2="51.4878">
		<stop  offset="0.1166" style="stop-color:#94C53E"/>
		<stop  offset="0.865" style="stop-color:#68B745"/>
	</linearGradient>
	<path fill="url(#SVGID_1_)" d="M36.928,47.499V25.777c0-2.2,1.782-3.984,3.984-3.984l0,0c2.198,0,3.984,1.784,3.984,3.984l0,0
		v21.722c0,2.198-1.786,3.988-3.984,3.988l0,0C38.71,51.487,36.928,49.697,36.928,47.499L36.928,47.499z"/>
</g>
<g>
	<path fill="#595959" d="M4.646,47.499V25.777c0-2.2,1.782-3.984,3.984-3.984l0,0c2.198,0,3.984,1.784,3.984,3.984l0,0v21.722
		c0,2.198-1.786,3.988-3.984,3.988l0,0C6.429,51.487,4.646,49.697,4.646,47.499L4.646,47.499z"/>
</g>
<g>
	<linearGradient id="SVGID_2_" gradientUnits="userSpaceOnUse" x1="56.8496" y1="21.793" x2="56.8496" y2="51.4878">
		<stop  offset="0.1166" style="stop-color:#94C53E"/>
		<stop  offset="0.865" style="stop-color:#68B745"/>
	</linearGradient>
	<path fill="url(#SVGID_2_)" d="M52.865,47.499V25.777c0-2.2,1.781-3.984,3.984-3.984l0,0c2.198,0,3.984,1.784,3.984,3.984l0,0
		v21.722c0,2.198-1.786,3.988-3.984,3.988l0,0C54.646,51.487,52.865,49.697,52.865,47.499L52.865,47.499z"/>
</g>
<g>
	<linearGradient id="SVGID_3_" gradientUnits="userSpaceOnUse" x1="72.7861" y1="21.793" x2="72.7861" y2="51.4878">
		<stop  offset="0.1166" style="stop-color:#94C53E"/>
		<stop  offset="0.865" style="stop-color:#68B745"/>
	</linearGradient>
	<path fill="url(#SVGID_3_)" d="M68.802,47.499V25.777c0-2.2,1.782-3.984,3.984-3.984l0,0c2.198,0,3.984,1.784,3.984,3.984l0,0
		v21.722c0,2.198-1.786,3.988-3.984,3.988l0,0C70.584,51.487,68.802,49.697,68.802,47.499L68.802,47.499z"/>
</g>
<g>
	<linearGradient id="SVGID_4_" gradientUnits="userSpaceOnUse" x1="88.7236" y1="21.793" x2="88.7236" y2="51.4878">
		<stop  offset="0.1166" style="stop-color:#94C53E"/>
		<stop  offset="0.865" style="stop-color:#68B745"/>
	</linearGradient>
	<path fill="url(#SVGID_4_)" d="M84.739,47.499V25.777c0-2.2,1.782-3.984,3.984-3.984l0,0c2.198,0,3.984,1.784,3.984,3.984l0,0
		v21.722c0,2.198-1.786,3.988-3.984,3.988l0,0C86.521,51.487,84.739,49.697,84.739,47.499L84.739,47.499z"/>
</g>
<g>
	<path fill="#595959" d="M8.634,29.768c-2.202,0-3.987-1.784-3.987-3.982l0,0c0-2.204,1.785-3.989,3.987-3.989l0,0h12.891
		c2.202,0,3.986,1.785,3.986,3.989l0,0c0,2.198-1.784,3.982-3.986,3.982l0,0H8.634L8.634,29.768z"/>
</g>
<g>
	<path fill="#595959" d="M8.634,51.48c-2.202,0-3.987-1.783-3.987-3.986l0,0c0-2.199,1.785-3.984,3.987-3.984l0,0h12.891
		c2.202,0,3.986,1.785,3.986,3.984l0,0c0,2.203-1.784,3.986-3.986,3.986l0,0H8.634L8.634,51.48z"/>
</g>
</svg>
