<?xml version="1.0" encoding="utf-8"?>
<!-- Generator: Adobe Illustrator 14.0.0, SVG Export Plug-In . SVG Version: 6.00 Build 43363)  -->
<!DOCTYPE svg PUBLIC "-//W3C//DTD SVG 1.0//EN" "http://www.w3.org/TR/2001/REC-SVG-20010904/DTD/svg10.dtd">
<svg version="1.0" id="Layer_3" xmlns="http://www.w3.org/2000/svg" xmlns:xlink="http://www.w3.org/1999/xlink" x="0px" y="0px"
	 width="110px" height="70px" viewBox="0 0 110 70" enable-background="new 0 0 110 70" xml:space="preserve">
<linearGradient id="SVGID_1_" gradientUnits="userSpaceOnUse" x1="56.5996" y1="5.7671" x2="56.5996" y2="67.4224">
	<stop  offset="0.1288" style="stop-color:#DF1F27"/>
	<stop  offset="0.865" style="stop-color:#9C1C21"/>
</linearGradient>
<path fill="url(#SVGID_1_)" d="M104.567,5.767c-0.001,0-0.003,0-0.004,0s-0.003,0-0.004,0H24.866c-0.002,0-0.004,0-0.007,0
	c0,0,0,0-0.001,0c-2.2,0-3.984,1.786-3.984,3.984v12.045H8.665c-0.012,0-0.022-0.003-0.034-0.003c-2.202,0-3.984,1.784-3.984,3.984
	v21.722c0,2.198,1.782,3.988,3.984,3.988c0.021,0,0.041-0.006,0.062-0.007h12.181v11.96c0,2.2,1.667,3.958,3.868,3.958
	c0.23,0,79.605,0.023,79.826,0.023c2.197,0,3.984-1.781,3.984-3.984V9.752C108.552,7.55,106.765,5.767,104.567,5.767z
	 M28.841,13.736h71.741v45.655H28.841V13.736z M12.615,43.51V29.768h8.259V43.51H12.615z"/>
</svg>
