<?xml version="1.0" encoding="utf-8"?>
<!-- Generator: Adobe Illustrator 14.0.0, SVG Export Plug-In . SVG Version: 6.00 Build 43363)  -->
<!DOCTYPE svg PUBLIC "-//W3C//DTD SVG 1.0//EN" "http://www.w3.org/TR/2001/REC-SVG-20010904/DTD/svg10.dtd">
<svg version="1.0" id="Layer_5_copy" xmlns="http://www.w3.org/2000/svg" xmlns:xlink="http://www.w3.org/1999/xlink" x="0px"
	 y="0px" width="110px" height="70px" viewBox="0 0 110 70" enable-background="new 0 0 110 70" xml:space="preserve">
<g>
	<path fill="#595959" d="M20.874,62.81V9.708c0-2.174,1.784-3.94,3.984-3.94l0,0c2.199,0,3.982,1.767,3.982,3.94l0,0V62.81
		c0,2.176-1.783,3.94-3.982,3.94l0,0C22.658,66.75,20.874,64.985,20.874,62.81L20.874,62.81z"/>
</g>
<g>
	<path fill="#595959" d="M100.582,62.809v-53.1c0-2.178,1.783-3.941,3.985-3.941l0,0c2.197,0,3.984,1.764,3.984,3.941l0,0v53.1
		c0,2.18-1.787,3.941-3.984,3.941l0,0C102.365,66.75,100.582,64.988,100.582,62.809L100.582,62.809z"/>
</g>
<g>
	<path fill="#595959" d="M4.646,47.499V25.777c0-2.2,1.782-3.984,3.984-3.984l0,0c2.198,0,3.984,1.784,3.984,3.984l0,0v21.722
		c0,2.198-1.786,3.988-3.984,3.988l0,0C6.429,51.487,4.646,49.697,4.646,47.499L4.646,47.499z"/>
</g>
<g>
	<path fill="#595959" d="M8.634,29.768c-2.202,0-3.987-1.784-3.987-3.982l0,0c0-2.204,1.785-3.989,3.987-3.989l0,0h12.891
		c2.202,0,3.986,1.785,3.986,3.989l0,0c0,2.198-1.784,3.982-3.986,3.982l0,0H8.634L8.634,29.768z"/>
</g>
<g>
	<path fill="#595959" d="M8.634,51.48c-2.202,0-3.987-1.783-3.987-3.986l0,0c0-2.199,1.785-3.984,3.987-3.984l0,0h12.891
		c2.202,0,3.986,1.785,3.986,3.984l0,0c0,2.203-1.784,3.986-3.986,3.986l0,0H8.634L8.634,51.48z"/>
</g>
<path fill="#595959" d="M24.75,67.42c-2.228,0-4.034-1.809-4.034-4.033l0,0c0-2.229,1.806-4.035,4.034-4.035l0,0H49.81
	c2.225,0,4.033,1.807,4.033,4.035l0,0c0,2.225-1.809,4.033-4.033,4.033l0,0H24.75L24.75,67.42z"/>
<path fill="#595959" d="M79.25,67.42c-2.228,0-4.033-1.809-4.033-4.033l0,0c0-2.229,1.806-4.035,4.033-4.035l0,0h25.06
	c2.226,0,4.034,1.807,4.034,4.035l0,0c0,2.225-1.809,4.033-4.034,4.033l0,0H79.25L79.25,67.42z"/>
<path fill="#595959" d="M25.5,13.92c-2.228,0-4.034-1.809-4.034-4.033l0,0c0-2.229,1.806-4.035,4.034-4.035l0,0h15.934
	c2.225,0,4.034,1.807,4.034,4.035l0,0c0,2.225-1.809,4.033-4.034,4.033l0,0H25.5L25.5,13.92z"/>
<path fill="#595959" d="M87.75,13.92c-2.228,0-4.033-1.809-4.033-4.033l0,0c0-2.229,1.806-4.035,4.033-4.035l0,0h15.935
	c2.226,0,4.034,1.807,4.034,4.035l0,0c0,2.225-1.809,4.033-4.034,4.033l0,0H87.75L87.75,13.92z"/>
<path fill="#010101" d="M25.103,43.984"/>
<path fill="#010101" d="M25.103,21.994"/>
<linearGradient id="SVGID_1_" gradientUnits="userSpaceOnUse" x1="64.71" y1="5.7095" x2="64.71" y2="67.2915">
	<stop  offset="0" style="stop-color:#CFDAE3"/>
	<stop  offset="0.865" style="stop-color:#5F6B76"/>
</linearGradient>
<path fill="url(#SVGID_1_)" d="M86.381,24.082c0-2.224-1.808-4.033-4.034-4.033h-5.575V9.744c0-2.23-1.804-4.034-4.033-4.034
	c-2.229,0-4.034,1.804-4.034,4.034v10.305h-8.068V9.744c0-2.229-1.806-4.034-4.031-4.034c-2.227,0-4.033,1.805-4.033,4.034v10.305
	h-5.499c-2.229,0-4.034,1.809-4.034,4.033c0,0.004,0.001,0.008,0.001,0.012s-0.001,0.008-0.001,0.012
	c0.003,10.592,7.596,19.396,17.636,21.291v17.859c0,2.229,1.808,4.035,4.035,4.035c2.225,0,4.036-1.807,4.036-4.035V45.396
	c10.038-1.895,17.63-10.698,17.635-21.291c0-0.004-0.001-0.008-0.001-0.012S86.381,24.086,86.381,24.082z M64.711,37.711
	c-6.116-0.01-11.279-4.042-12.997-9.593h25.99C75.988,33.669,70.823,37.701,64.711,37.711z"/>
</svg>
